<svg xmlns="http://www.w3.org/2000/svg" width="24" height="28" viewBox="0 0 24 28"><path d="M24 14q0 3.922-2.29 7.055t-5.913 4.336q-.422.08-.617-.108t-.195-.47v-3.296q0-1.516-.812-2.22.89-.093 1.602-.28t1.47-.61 1.265-1.038.828-1.64.32-2.353q0-1.89-1.234-3.22.578-1.42-.125-3.186-.44-.142-1.267.17t-1.437.69l-.594.374q-1.453-.406-3-.406t-3 .406q-.25-.172-.664-.422T7.033 7.18 5.69 6.97Q5 8.734 5.58 10.155q-1.234 1.328-1.234 3.22 0 1.327.32 2.343t.82 1.64 1.258 1.047 1.47.61 1.6.28q-.624.562-.765 1.61-.33.155-.704.233t-.89.078-1.024-.336-.867-.977q-.297-.5-.758-.812t-.773-.375l-.313-.047q-.327 0-.452.07t-.078.18.14.22.204.187l.11.078q.343.156.68.594t.49.796l.157.36q.204.593.69.96t1.046.47 1.086.108.867-.055l.358-.064q0 .594.008 1.39t.008.845q0 .282-.203.47t-.624.11q-3.625-1.204-5.914-4.337t-2.29-7.055q0-3.266 1.61-6.023T5.98 3.608 12 1.998t6.023 1.61 4.367 4.367 1.61 6.023z"/></svg>